<svg version="1" xmlns="http://www.w3.org/2000/svg" width="640" height="640" viewBox="0 0 480.000000 480.000000"><path d="M30 175v155l192.3-.2 192.2-.3 5.8-2.9c11.3-5.5 23.7-20.5 27.7-33.4 2-6.3 2-9.6 2-139.8V20H30v155zm360 0v135H90V40h300v135z"/><path d="M123.2 176.2l.3 78.3h29c27.6 0 29.4-.1 36.5-2.3 15.8-5 27.5-15.3 35.5-31.4 7.7-15.7 8.9-21.9 8.9-45.8 0-18-.3-21.5-2.2-28.4-6.7-24-21.6-39.8-43.7-46.2-4.9-1.4-11.4-1.8-35.3-2.1l-29.2-.5.2 78.4zm57.3-58.7c17.5 4.6 27.9 15.7 33.2 35.5 2.4 9.1 2.4 34.6 0 44.5-5.3 21.1-18.3 35.2-35.6 38.5-2.9.5-12.3 1-20.7 1H142V116h16.3c11.4 0 18 .5 22.2 1.5zM258 176.6v78.6l31.8-.4c28.7-.4 32.3-.6 37.9-2.5 12.9-4.3 22.2-12.4 26.4-23.1 3.1-7.8 3.4-27.1.5-34.7-4-10.6-11.3-17.6-21.8-21.1l-4.9-1.6 4-2c9.6-4.7 16.5-16.2 17.7-29.6 1.5-16.8-5-30.3-17.8-36.8-9-4.6-15.9-5.4-46-5.4H258v78.6zm62.6-57.9c8.1 4.3 11 10 10.8 21.3-.2 10.4-3.9 17.1-11.8 21.3-3.8 2-5.7 2.2-23.8 2.5l-19.8.4v-48.3l20.3.3c18.6.3 20.5.5 24.3 2.5zm1.2 64.8c6.2 1.9 11.5 6.2 14.5 11.9 1.8 3.4 2.2 5.8 2.2 13.6 0 8.3-.3 10.2-2.5 14.4-5.8 11.2-12.9 13.6-40.7 13.6H276v-55h20.3c15.4 0 21.6.4 25.5 1.5zM409 361.7c-6.3 2.3-15.1 11.3-17.3 17.7-4 11.7-1.4 23.1 7.2 31.7 8.6 8.6 20 11.2 31.7 7.2 6.7-2.3 15.4-11 17.7-17.7 4-11.7 1.4-23.1-7.2-31.7-3.8-3.8-7.2-6.1-10.5-7.2-6.1-2.1-15.6-2.1-21.6 0zM85 387.5V405H50v30h35v35h30v-35h35v-30h-35v-35H85v17.5zM339 401.7c-6.3 2.3-15.1 11.3-17.3 17.7-4 11.7-1.4 23.1 7.2 31.7 6.4 6.4 12.4 8.9 21.1 8.9 8.7 0 14.7-2.5 21.1-8.9 6.4-6.4 8.9-12.4 8.9-21.1 0-3.1-.8-7.9-1.7-10.6-2.3-6.7-11-15.4-17.7-17.7-6.1-2.1-15.6-2.1-21.6 0z"/></svg>